<svg width="83" height="42" viewBox="0 0 83 42" fill="none" xmlns="http://www.w3.org/2000/svg">
<path fill-rule="evenodd" clip-rule="evenodd" d="M0 15.2945V29.8003L16.0061 29.7954V15.2788L0 15.2945ZM5.58756 25.0718H10.7042V20.0231H5.58756V25.0718Z" fill="#162583"/>
<path fill-rule="evenodd" clip-rule="evenodd" d="M18.8813 33.3038V14.7614L24.8634 14.7373V33.3038H18.8813Z" fill="#162583"/>
<path fill-rule="evenodd" clip-rule="evenodd" d="M2.39697 41.7407C2.41264 40.4999 2.50584 33.0435 2.52281 31.8208H9.44493L9.3969 36.5761L9.57051 36.5756C12.484 36.5695 23.715 36.3204 25.2587 36.2858V41.7407H2.39697Z" fill="#162583"/>
<path fill-rule="evenodd" clip-rule="evenodd" d="M56.9888 15.2869C57.4101 15.2783 58.8878 15.2681 63.5347 15.2681C66.8789 15.2681 70.4276 15.2733 71.2385 15.2746V20.0233H62.6547V24.3549L62.8225 24.3583C62.8358 24.3588 64.1793 24.3868 66.3709 24.3868C68.6343 24.3868 71.032 23.6378 71.6995 23.4133L72.839 28.1406C72.3065 28.3149 70.2441 28.8964 66.4296 28.8964C62.7298 28.8964 57.95 28.915 56.9888 28.9192V15.2869Z" fill="#162583"/>
<mask id="mask0_0_1332" style="mask-type:luminance" maskUnits="userSpaceOnUse" x="74" y="14" width="9" height="16">
<path fill-rule="evenodd" clip-rule="evenodd" d="M74.7573 14.7769H82.9997V29.0333H74.7573V14.7769Z" fill="white"/>
</mask>
<g mask="url(#mask0_0_1332)">
<path fill-rule="evenodd" clip-rule="evenodd" d="M74.7573 29.0333V14.7769H80.265V21.1529L82.9999 20.9757V26.2843L80.265 26.2463V29.0333H74.7573Z" fill="#162583"/>
</g>
<path fill-rule="evenodd" clip-rule="evenodd" d="M37.5892 41.7719C37.5777 41.197 37.6166 38.9491 37.6955 35.6903L37.6996 35.5144L28.0596 35.5087V30.326L53.7235 30.292V35.5241L44.038 35.5184L44.1464 41.7719H37.5892Z" fill="#162583"/>
<path fill-rule="evenodd" clip-rule="evenodd" d="M28.0317 23.9823C28.5359 23.9637 29.8435 23.9014 31.5331 23.7143C35.6812 23.255 37.1646 21.5209 37.1742 20.1757L37.1755 20.0022L29.229 20.0153V15.3456L52.6039 15.3071V19.9766L44.6234 19.9899L44.6185 20.1564C44.5757 21.5976 45.9794 23.3942 50.0766 23.7148C50.8934 23.7787 51.6938 23.8114 52.4562 23.8114C53.0039 23.8114 53.4062 23.7944 53.6398 23.7811L52.4585 28.8928C51.6502 28.8703 47.539 28.7284 45.6925 28.1406C43.3643 27.3995 41.7896 26.334 41.0121 24.9739L40.8633 24.7138L40.7145 24.9739C39.9368 26.334 38.3621 27.3995 36.0342 28.1406C34.1858 28.729 30.2785 28.8705 29.5169 28.8928L28.0317 23.9823Z" fill="#162583"/>
<path fill-rule="evenodd" clip-rule="evenodd" d="M69.8623 34.2461C68.5045 34.2461 66.7319 34.5034 65.6471 34.858C65.2031 34.9986 64.9673 35.3364 64.9673 35.8347C64.9673 36.3047 65.1926 36.6321 65.6375 36.8078L65.6471 36.8114C66.7321 37.1658 68.5048 37.4233 69.8623 37.4233C71.2198 37.4233 72.9925 37.1658 74.0772 36.8114L74.0868 36.8078C74.5317 36.6321 74.7573 36.3047 74.7573 35.8347C74.7573 35.3362 74.5215 34.9983 74.0754 34.8575C72.9927 34.5034 71.2201 34.2461 69.8623 34.2461M69.8623 42.0001C65.9448 42.0001 63.0294 41.4403 61.1968 40.3359C59.5471 39.3416 58.7451 37.9279 58.7451 36.014C58.7451 31.9658 62.3817 29.998 69.8623 29.998C77.3428 29.998 80.9792 31.9658 80.9792 36.014C80.9792 37.9279 80.1772 39.3416 78.5275 40.3359C76.6949 41.4403 73.7796 42.0001 69.8623 42.0001" fill="#162583"/>
<path fill-rule="evenodd" clip-rule="evenodd" d="M15.5788 6.31438C15.6177 6.34055 15.6307 6.33977 15.6673 6.36856C15.731 6.41854 15.79 6.47403 15.8518 6.52637C15.8753 6.54652 15.9004 6.5651 15.9255 6.58368C15.9772 6.62215 15.9868 6.66063 15.9633 6.7203C15.9453 6.76636 15.9325 6.81425 15.9153 6.86031C15.9043 6.88936 15.8952 6.9226 15.8751 6.94406C15.8398 6.98201 15.8216 7.02597 15.8033 7.07282C15.7853 7.1181 15.7555 7.15866 15.7346 7.20315C15.7056 7.26439 15.6761 7.32616 15.6534 7.39001C15.6088 7.51537 15.5657 7.64152 15.5273 7.76897C15.507 7.83597 15.4926 7.90585 15.4856 7.97546C15.4814 8.01498 15.477 8.05005 15.4571 8.08643C15.4227 8.14924 15.4182 8.22068 15.4151 8.29213C15.4135 8.33296 15.402 8.37352 15.3929 8.41383C15.3691 8.51825 15.3438 8.62215 15.3208 8.72657C15.3177 8.74096 15.3271 8.75745 15.3261 8.77263C15.3232 8.81084 15.3195 8.84905 15.313 8.88674C15.3104 8.90165 15.2953 8.91474 15.2937 8.9294C15.2859 9.00948 15.2705 9.08721 15.2511 9.16572C15.2318 9.24292 15.2932 9.64936 15.2498 9.69516C15.2428 9.70275 15.2548 9.74515 15.2436 9.81555C15.2373 9.85323 15.2399 9.89458 15.2493 9.93149C15.2629 9.9854 15.2522 10.1547 15.2376 10.206C15.2075 10.3128 15.2222 10.7253 15.2248 10.7561C15.23 10.8161 15.2135 10.8804 15.2148 10.9401C15.2169 11.0498 15.1992 11.1547 15.201 11.2644C15.2018 11.3021 15.1989 11.4086 15.2122 11.4345C15.2415 11.4908 15.2068 11.6164 15.2984 11.564C15.337 11.5421 15.3707 11.502 15.4065 11.4764C15.442 11.451 15.4981 11.4447 15.5307 11.4154C15.5696 11.3806 15.6367 11.3261 15.6743 11.2898C15.7117 11.2534 15.7573 11.2586 15.7957 11.2238C15.8325 11.1906 15.8683 11.1524 15.9119 11.1322C16.0093 11.0869 16.0476 11.0527 16.1338 10.9951C16.1983 10.9522 16.2625 10.9082 16.327 10.8642C16.3377 10.8569 16.4651 10.7454 16.5116 10.6907C16.5382 10.6593 16.5609 10.6242 16.5875 10.5928C16.611 10.5648 16.634 10.5347 16.6632 10.5146C16.6959 10.4921 16.7248 10.4719 16.7439 10.4337C16.7546 10.412 16.7885 10.4018 16.8196 10.3816C16.875 10.2327 16.8643 10.0786 16.7995 9.92547C16.7885 9.89956 16.782 9.87051 16.7797 9.84224C16.7721 9.74201 16.7452 9.64701 16.711 9.55331C16.6815 9.47271 16.652 9.39367 16.6794 9.30233C16.6982 9.24083 16.6951 9.17279 16.7032 9.10788C16.7149 9.01393 16.7387 8.92416 16.7859 8.83989C16.8434 8.7373 16.8859 8.62607 16.9478 8.52662C17.0193 8.41199 17.0966 8.29841 17.1877 8.19922C17.2493 8.13196 17.5582 7.9663 17.572 7.87365C17.5736 7.86292 17.5976 7.85089 17.6127 7.84775C17.626 7.84513 17.6887 7.73626 17.7333 7.69438C17.7574 7.67188 17.7675 7.63471 17.79 7.5931C17.801 7.58996 17.8252 7.58316 17.8511 7.57583C17.8555 7.56248 17.861 7.5507 17.8633 7.53814C17.8686 7.50778 17.8832 7.49234 17.9161 7.49339C17.9602 7.4947 18.037 7.43084 18.0437 7.42796C18.1638 7.38033 18.5074 7.14296 18.5327 7.05555C18.5369 7.04194 18.5502 7.02938 18.5622 7.01995C18.623 6.97101 18.9862 6.65513 19.0363 6.60096C19.1212 6.50988 19.2128 6.42535 19.3023 6.33925C19.3146 6.32721 19.3318 6.31255 19.3465 6.31281C19.4005 6.31281 19.4843 6.16992 19.5201 6.14951C19.5334 6.14165 19.5451 6.13014 19.5553 6.11836C19.6172 6.04718 19.6898 5.98908 19.7665 5.9349C19.7971 5.91344 19.8182 5.87863 19.8443 5.85063C19.9323 5.75642 20.013 5.65827 20.0472 5.52977C20.0673 5.4544 20.0928 5.38034 20.1153 5.30575C20.1456 5.20473 20.203 5.11182 20.2492 5.01551C20.2662 4.98044 20.2845 4.9459 20.3012 4.91083C20.3202 4.87053 20.339 4.83022 20.3563 4.7894C20.4197 4.6376 20.4325 4.48947 20.4753 4.33193C20.5053 4.21991 20.6066 4.01578 20.6079 3.97495C20.6105 3.86687 20.6387 3.44316 20.7361 3.27174C20.7424 3.26048 20.7494 3.24792 20.7593 3.24059C20.8243 3.19348 21.0442 3.15344 21.1144 3.11654C21.2504 3.04509 21.5378 3.11183 21.683 3.13643C21.7851 3.15397 21.8548 3.22306 21.9172 3.29764C21.955 3.34318 21.9837 3.39788 22.0104 3.45179C22.0234 3.47823 22.026 3.51199 22.0273 3.54261C22.0307 3.62583 22.0312 3.70958 22.0328 3.79306C22.0331 3.8085 22.0325 3.82421 22.0315 3.83991C22.0242 3.93857 22.0153 3.82368 22.0106 3.92261C22.0096 3.94355 22.0205 3.96736 22.0323 3.98568C22.0547 4.02075 22.0618 4.05137 22.0292 4.08435C22.0195 4.09429 22.0148 4.11156 22.0122 4.12596C22.0049 4.16679 21.9986 4.20787 21.9944 4.24922C21.9921 4.27173 21.9756 4.34082 21.9816 4.36228C21.9916 4.39735 22.0211 4.56589 22.0051 4.62766C21.9916 4.67921 21.997 5.02389 21.9892 5.0744C21.9806 5.1304 21.9876 5.18877 21.9869 5.24582C21.9866 5.26414 21.9843 5.2822 21.9819 5.30025C21.9707 5.38269 21.9777 5.52559 22.0268 5.5829C22.0516 5.61169 22.037 5.81818 22.0367 5.86189C22.0365 5.97311 22.0302 6.08408 22.0268 6.1953C22.0265 6.20813 22.0279 6.22174 22.0323 6.23351C22.0667 6.32459 22.056 6.41802 22.0524 6.51224C22.0487 6.60593 22.0547 6.70041 22.0571 6.79436C22.0589 6.86973 22.0339 6.94537 22.0589 7.02074C22.0239 7.10998 22.0613 7.20106 22.054 7.29213C22.0456 7.39289 22.0529 6.9192 22.0589 7.02074C22.0649 7.12281 22.072 7.22435 22.0474 7.32511C22.0443 7.33767 22.0425 7.3518 22.0453 7.36384C22.0777 7.50281 22.0508 7.63916 22.0294 7.77577C22.0258 7.79881 22.026 7.82262 22.0239 7.84591C22.0226 7.86135 21.991 7.99954 21.9882 8.05816C21.9824 8.17384 21.8931 8.97362 21.8336 9.08276C21.8093 9.12751 21.7856 9.43947 21.7973 9.51013C21.7642 9.59964 21.7801 9.78728 21.7717 9.81974C21.7631 9.85245 21.7033 10.2667 21.7023 10.3125C21.7 10.3963 21.6438 10.5701 21.672 10.652C21.6814 10.6795 21.678 10.7127 21.6746 10.7425C21.6631 10.8459 21.6493 10.949 21.6357 11.0521C21.631 11.088 21.6242 11.1238 21.6185 11.1597C21.6167 11.1696 21.6428 11.5154 21.6209 11.6015C21.6154 11.6232 21.6232 11.648 21.6237 11.6713C21.625 11.7127 21.6308 11.7548 21.6245 11.7951C21.618 11.8399 21.6209 11.8778 21.6519 11.9121C21.6806 11.9435 21.6859 11.9786 21.6762 12.0212C21.6689 12.0529 21.6757 12.0877 21.6765 12.1212C21.677 12.1445 21.6796 12.1678 21.6775 12.1908C21.6689 12.2845 21.6652 12.5313 21.6767 12.5523C21.7007 12.5967 21.6887 12.7645 21.6968 12.8043C21.7002 12.8213 21.7033 12.8807 21.6913 12.8886C21.6733 13.0833 21.7819 13.3363 21.7673 13.3905C21.7543 13.4397 21.7436 13.4866 21.7519 13.5365C21.759 13.5789 21.7422 13.6083 21.7036 13.6247C21.6699 13.6389 21.6438 13.6601 21.6167 13.686C21.5712 13.7292 21.4141 13.7661 21.3715 13.7629C21.3585 13.7621 21.342 13.7797 21.3308 13.7922C21.2932 13.8333 21.2525 13.8694 21.1971 13.8838C21.1797 13.8885 21.1614 13.8925 21.1434 13.8922C21.0794 13.8909 21.0152 13.8862 20.951 13.8859C20.9345 13.8859 20.9175 13.8972 20.9019 13.9056C20.8672 13.9239 20.834 13.9448 20.7993 13.9631C20.7659 13.9807 20.7296 13.9801 20.7058 13.9508C20.6625 13.8972 20.6197 13.8414 20.586 13.7815C20.5667 13.747 20.562 13.7027 20.557 13.6619C20.5387 13.5167 20.4377 13.0731 20.4408 13.061C20.4625 12.972 20.4046 12.8943 20.4079 12.8085C20.4085 12.7902 20.4098 12.7721 20.4111 12.754C20.4119 12.7412 20.3844 12.6213 20.3868 12.5687C20.3905 12.486 20.3844 12.4031 20.3805 12.3204C20.3795 12.2947 20.3777 12.2662 20.3657 12.2445C20.3296 12.1783 20.326 12.0194 20.3114 11.8166C20.31 11.7962 20.3137 11.7747 20.3116 11.754C20.298 11.6232 20.3356 11.3434 20.3335 11.3335C20.3372 11.0657 20.361 10.8967 20.362 10.8757C20.3649 10.8053 20.3685 10.7352 20.373 10.6648C20.3748 10.6334 20.3834 10.602 20.3811 10.5711C20.3756 10.4973 20.386 10.4259 20.3954 10.3528C20.4103 10.2369 20.4129 10.1191 20.4228 10.0024C20.4348 9.86213 20.4181 9.74122 20.4181 9.64701C20.4179 9.5117 20.4424 9.3764 20.4602 9.24135C20.4803 9.0859 20.6069 8.25156 20.6265 8.09585C20.6437 7.96107 20.6562 7.8255 20.6682 7.68993C20.6721 7.64597 20.6685 7.60148 20.668 7.55725C20.6672 7.51302 20.6614 7.46827 20.6654 7.42456C20.6711 7.35939 20.6706 7.29632 20.6609 7.23037C20.6497 7.15395 20.664 7.07387 20.6638 6.99562C20.6635 6.84382 20.657 7.26858 20.657 7.11679C20.657 7.05424 20.6659 6.99169 20.6661 6.9294C20.6667 6.8624 20.6617 6.79541 20.6591 6.72841C20.6426 6.72841 20.6345 6.72658 20.6332 6.72867C20.5849 6.81085 20.5001 6.85691 20.4393 6.92679C20.4241 6.94406 20.403 6.9561 20.3855 6.97206C20.3651 6.99038 20.3456 7.01001 20.3265 7.0299C20.3194 7.03723 20.3166 7.04953 20.3085 7.05529C20.1876 7.13982 20.1145 7.27329 19.9973 7.36149C19.962 7.38792 19.9284 7.42011 19.8887 7.4366C19.8132 7.46774 19.7709 7.54573 19.6892 7.56772C19.6644 7.57452 19.6443 7.60252 19.6248 7.62346C19.5715 7.67999 19.5235 7.74175 19.4449 7.7674C19.4347 7.77054 19.4269 7.78494 19.4206 7.79567C19.3796 7.86868 19.2731 7.9383 19.248 7.95112C19.2285 7.96133 18.9133 8.11129 18.8684 8.13484C18.7515 8.19608 18.6327 8.2602 18.5312 8.34369C18.4087 8.44418 18.2824 8.53866 18.1469 8.61822C18.0712 8.66245 17.9939 8.70014 17.9364 8.76871C17.9284 8.77813 17.7728 8.87025 17.7158 8.92076C17.672 8.96002 17.6438 9.01707 17.6007 9.05763C17.4866 9.16441 17.3877 9.2882 17.2551 9.37483C17.2076 9.40571 17.0611 9.45674 17.0569 9.5172C17.053 9.57713 17.0431 9.55986 17.0478 9.619C17.0507 9.65512 17.1266 9.74541 17.1428 9.78022C17.1546 9.80586 17.2404 9.84486 17.2381 9.8692C17.2334 9.92259 17.2553 9.95949 17.2911 9.99717C17.359 9.99717 17.4289 9.9943 17.4986 9.99796C17.5576 10.0011 17.6185 10.0016 17.6707 10.0393C17.6887 10.0524 17.8064 10.0691 17.8331 10.0992C17.8365 10.1032 17.8417 10.1079 17.8459 10.1079C17.9338 10.1079 17.9853 10.1822 18.0576 10.2144C18.0837 10.2262 18.2521 10.3167 18.3045 10.3651C18.3121 10.3722 18.3197 10.3814 18.3288 10.384C18.4134 10.4065 18.4361 10.4824 18.4693 10.5481C18.4855 10.5797 18.4834 10.6143 18.462 10.6452C18.456 10.6538 18.4484 10.6635 18.4476 10.6729C18.4437 10.7281 18.4095 10.7556 18.3622 10.7737C18.3502 10.7781 18.3401 10.787 18.3286 10.7941C18.3278 10.8027 18.326 10.8103 18.3262 10.8179C18.3286 10.8736 18.0748 11.0477 18.0142 11.1186C17.9874 11.1497 17.9717 11.1916 17.9419 11.2188C17.8981 11.2586 17.6965 11.4345 17.6751 11.4599C17.6589 11.4792 17.5639 11.6384 17.4971 11.6682C17.4811 11.6753 17.4634 11.6889 17.4574 11.7041C17.4368 11.7551 17.2538 11.8399 17.2167 11.8844C17.1582 11.9553 17.1029 12.0325 17.0086 12.0626C16.9987 12.0657 16.7875 12.2016 16.729 12.3078C16.7188 12.3264 16.6134 12.3534 16.5935 12.3785C16.5794 12.3963 16.5593 12.4172 16.539 12.4209C16.4635 12.4347 16.4092 12.4837 16.3481 12.5227C16.3267 12.5363 16.2996 12.54 16.2758 12.5504C16.2599 12.5572 16.24 12.5646 16.2322 12.5776C16.2176 12.6025 16.1998 12.6067 16.174 12.6062C16.138 12.6054 16.074 12.6784 16.0633 12.6823C15.9821 12.7116 15.9283 12.7784 15.8625 12.8284C15.85 12.838 15.8338 12.8441 15.8244 12.8558C15.7861 12.905 15.5378 13.1024 15.4937 13.1147C15.4772 13.1191 15.4629 13.1327 15.4475 13.1416C15.4049 13.1665 15.3642 13.1958 15.319 13.2149C15.2616 13.2392 15.2008 13.2557 15.141 13.2743C15.1237 13.2795 15.0185 13.2785 14.989 13.3096C14.9736 13.3261 14.9426 13.3353 14.9188 13.3348C14.8366 13.3332 14.7588 13.352 14.6815 13.3761C14.6718 13.3793 14.5468 13.3874 14.4959 13.4041C14.4489 13.4196 14.4006 13.4311 14.352 13.4415C14.3079 13.4512 14.2719 13.4371 14.24 13.4028C14.1904 13.3492 14.1361 13.3002 14.0852 13.2479C14.0711 13.2335 14.0602 13.2152 14.051 13.1968C14.0309 13.1573 14.0147 13.116 13.9941 13.0767C13.9325 12.9592 13.8691 12.8422 13.8074 12.7245C13.8004 12.7114 13.7949 12.6936 13.7978 12.6797C13.8043 12.6465 13.7965 12.619 13.7795 12.5905C13.7709 12.5761 13.7709 12.5554 13.7704 12.5376C13.7688 12.4853 13.7257 12.3476 13.7317 12.3335C13.7508 12.2885 13.7388 12.2463 13.7286 12.2034C13.7192 12.1636 13.7652 12.0537 13.7659 12.0341C13.7706 11.9139 13.7759 11.7936 13.7751 11.6732C13.774 11.5109 13.7913 11.3502 13.8064 11.1893C13.8124 11.1267 13.8142 11.0639 13.8174 11.0011C13.8278 10.7896 13.8369 10.5782 13.8487 10.3667C13.8505 10.3335 13.8641 10.3008 13.8704 10.2675C13.8764 10.2351 13.8798 10.2024 13.8839 10.1696C13.885 10.1621 13.9009 10.0425 13.8905 9.99089C13.8751 9.9129 13.904 9.84093 13.9161 9.76713C13.9241 9.71662 13.9672 9.57504 13.9617 9.55619C13.9456 9.50228 13.9657 9.45282 13.9745 9.40178C13.9837 9.35075 13.9965 9.29972 13.9991 9.24842C14.0051 9.12751 14.0288 9.01079 14.0638 8.89537C14.0758 8.85585 14.0719 8.81189 14.0818 8.77158C14.0962 8.71375 14.1528 8.45989 14.1643 8.40153C14.1839 8.30181 14.2831 8.03696 14.3155 7.90035C14.3345 7.81922 14.3565 7.73914 14.3941 7.66429C14.4011 7.65042 14.4058 7.63367 14.4165 7.62372C14.4766 7.56876 14.5366 7.35992 14.5392 7.32877C14.5452 7.26125 14.569 7.20289 14.6196 7.15604C14.6322 7.14479 14.6455 7.1283 14.6476 7.11286C14.6609 7.0019 14.7196 6.9103 14.781 6.82367C14.8473 6.72972 14.9107 6.63472 14.9556 6.52925C14.9731 6.48816 14.7768 6.53003 14.7449 6.53684C14.6303 6.5617 14.2429 6.6567 14.1957 6.6902C14.1615 6.71454 13.8401 6.81137 13.7795 6.83231C13.7722 6.83493 13.6286 6.91606 13.5615 6.94668C13.4843 6.98175 13.3991 6.99928 13.3174 7.02467C13.2932 7.03199 13.1148 7.1194 13.048 7.15081C13.0117 7.16782 12.9671 7.16756 12.9261 7.17463C12.9211 7.17541 12.9154 7.17332 12.9104 7.17463C12.7238 7.22095 12.5337 7.20341 12.3447 7.20655C12.1954 7.20917 12.0808 7.13589 11.9839 7.03042C11.9578 7.00163 11.9408 6.96447 11.916 6.93438C11.8782 6.88831 11.839 6.84304 11.7967 6.80116C11.7518 6.75694 11.6393 6.53762 11.6411 6.47298C11.6453 6.44629 11.7761 6.45859 11.9048 6.41252C12.074 6.35233 12.2502 6.30941 12.4092 6.22095C12.5204 6.15893 12.6327 6.09769 12.7491 6.04639C12.9146 5.9739 13.0637 5.87262 13.2224 5.78887C13.2892 5.75354 13.3592 5.72423 13.4271 5.69046C13.6487 5.57976 13.8725 5.47429 14.1032 5.38243C14.2079 5.34108 14.3139 5.31203 14.4204 5.27984C14.5175 5.25053 14.6113 5.20866 14.7086 5.18013C14.8966 5.12543 15.0851 5.07728 15.2754 5.03252C15.4404 4.99353 15.6088 4.96422 15.7746 4.92967C15.8432 4.91554 15.9119 4.89513 15.9766 4.86843C16.0495 4.8386 16.1239 4.83886 16.1993 4.83493C16.2348 4.8331 16.2701 4.82211 16.3051 4.81452C16.3176 4.81164 16.3309 4.80196 16.3421 4.80405C16.4387 4.82132 16.5332 4.79437 16.6288 4.79227C16.6489 4.79175 16.6703 4.79751 16.6891 4.80562C16.7875 4.84749 16.887 4.88754 16.9823 4.93543C17.0326 4.96082 17.0744 5.00269 17.1217 5.03409C17.2023 5.08775 17.2441 5.16495 17.2686 5.25629C17.2861 5.32145 17.3133 5.38426 17.3305 5.44995C17.3373 5.47586 17.3378 5.51224 17.3248 5.53318C17.2775 5.60881 17.2676 5.6957 17.241 5.77761C17.2271 5.82054 17.2031 5.84985 17.165 5.87235C17.0786 5.92313 16.9919 5.96395 16.8862 5.9616C16.8089 5.95976 16.498 6.08172 16.4515 6.08957C16.4309 6.09324 16.41 6.10894 16.3949 6.12464C16.3547 6.16625 16.3239 6.16024 16.2615 6.1516C16.2079 6.14427 16.1416 6.17882 16.0873 6.17672C16.0771 6.17646 16.0633 6.17489 16.057 6.18039C16.0022 6.23116 15.5493 6.29449 15.5788 6.31438" fill="#162583"/>
<path fill-rule="evenodd" clip-rule="evenodd" d="M27.7085 14.0536C27.6406 14.0719 27.3197 14.1551 27.3088 14.1604C27.107 14.2033 27.0276 14.2156 26.672 14.214C26.6115 14.1845 26.5337 14.1729 26.5018 14.1114C26.4742 14.0583 26.4661 14.0709 26.4347 14.0196C26.4013 13.9651 26.3935 13.9576 26.3896 13.8913C26.3817 13.7526 26.3327 13.6435 26.3877 13.514C26.417 13.4449 26.4232 13.3666 26.488 13.3153C26.4992 13.3064 26.5042 13.2889 26.511 13.275C26.5535 13.1863 26.7104 13.1216 26.7572 13.0366C26.878 12.9822 27.1688 12.7689 27.1879 12.7414C27.2788 12.6103 27.8009 12.0575 27.8562 11.9112C27.892 11.8165 28.3546 11.1934 28.3606 11.1656C28.3695 11.1227 28.406 11.063 28.4193 11.0214C28.4405 10.9552 28.4402 10.9489 28.3802 10.9C28.322 10.9356 28.2865 10.9502 28.2256 10.9775C28.1144 11.0274 28.1304 11.0363 28.0116 11.0711C27.9082 11.1015 27.7941 11.1863 27.6954 11.2331C27.6531 11.2536 27.6116 11.2755 27.5701 11.2973C27.4602 11.3548 26.5428 11.7882 26.4958 11.8154C26.4084 11.866 26.0421 12.0641 25.9706 12.1316C25.9079 12.1907 25.923 12.2164 25.8293 12.2219C25.7985 12.2237 25.7677 12.2397 25.7374 12.2384C25.6808 12.2358 25.6461 12.2598 25.5902 12.2494C25.4672 12.2269 25.4717 12.1604 25.3586 12.1015C25.2419 12.041 25.1602 11.9523 25.1117 11.8304C25.0618 11.7055 25.0266 11.5773 25.0219 11.4422C25.0203 11.4006 25.0239 11.3588 25.0271 11.3169C25.0292 11.2931 25.0341 11.2708 25.0098 11.2536C24.9793 11.2321 24.9738 11.197 24.99 11.1701C25.0018 11.1507 25.1404 10.878 25.1957 10.8045C25.2417 10.7435 25.3077 10.7136 25.3793 10.6922C25.4056 10.6841 25.4336 10.6726 25.4534 10.6545C25.4865 10.6247 25.5226 10.6132 25.5659 10.6074C25.6636 10.5943 25.7607 10.5755 25.8575 10.5574C25.875 10.5543 26.2293 10.4108 26.2457 10.4033C26.3139 10.3713 26.3802 10.3339 26.4507 10.3083C26.5804 10.2606 26.7149 10.2253 26.8433 10.1743C26.9255 10.1415 27.0869 10.0526 27.1709 10.0369C27.2472 10.0227 27.2451 10.0222 27.2464 9.94657C27.2482 9.82959 27.2519 9.71234 27.2571 9.59536C27.2602 9.53072 27.2683 9.46607 27.2741 9.40169C27.2751 9.39122 27.2889 9.21091 27.2707 9.13893C27.2636 9.11145 27.2751 9.079 27.2788 9.04891C27.284 9.01043 27.2944 8.97196 27.2939 8.93375C27.2934 8.89136 27.2743 8.87644 27.2336 8.88115C27.1976 8.8856 27.1608 8.89214 27.1271 8.90523C27.0467 8.93637 26.9681 8.9717 26.8887 9.00494C26.8744 9.01096 26.8592 9.01829 26.8441 9.01907C26.7271 9.02588 26.8791 9.01017 26.7788 9.05885C26.7235 9.08581 26.6626 9.10203 26.6042 9.12245C26.5846 9.12925 26.5645 9.13501 26.5444 9.13998C26.4791 9.15673 26.4175 9.18264 26.3468 9.18133C26.306 9.18055 26.2648 9.20907 26.2235 9.22373C26.1951 9.23394 26.1661 9.2431 26.1371 9.25252C26.1178 9.2588 26.0964 9.26115 26.0794 9.2711C25.9653 9.33757 25.8432 9.37945 25.7147 9.40876C25.6521 9.42315 25.5923 9.45116 25.5309 9.47262C25.5187 9.4768 25.5064 9.48151 25.4936 9.48361C25.4218 9.49408 24.6538 9.84346 24.5919 9.8801C24.5405 9.91046 24.4903 9.92276 24.4355 9.90548C24.4026 9.89528 24.3755 9.89345 24.348 9.91595C24.3405 9.92223 24.3285 9.92956 24.3201 9.92825C24.2324 9.91229 24.1541 9.9662 24.0677 9.95966C24.0055 9.95469 23.9617 10.0044 23.9045 9.96751C23.8742 9.94788 23.8309 9.94814 23.793 9.94186C23.7416 9.93375 23.7199 9.83744 23.6698 9.82514C23.5836 9.80394 23.4565 9.58672 23.4056 9.54328C23.3286 9.47785 23.2787 9.39201 23.2411 9.29858C23.2346 9.28183 23.2263 9.26377 23.2135 9.25199C23.1766 9.21797 23.1579 9.174 23.1529 9.12716C23.1338 8.94579 23.1391 8.85131 23.2884 8.74794C23.2949 8.74349 23.3007 8.73721 23.308 8.73485C23.4273 8.69926 23.5296 8.62206 23.6554 8.5985C23.7171 8.58673 23.7737 8.54747 23.8324 8.52025C23.8486 8.51266 23.8643 8.50272 23.881 8.49643C23.969 8.46477 24.0562 8.43022 24.1457 8.40405C24.2381 8.37683 24.3332 8.35904 24.4266 8.33496C24.4718 8.32318 24.5154 8.30512 24.5603 8.29204C24.69 8.25435 24.8177 8.20934 24.9527 8.19076C25.0735 8.17427 25.4821 8.0052 25.6035 7.99552C25.7309 7.98531 26.0327 7.84451 26.0967 7.83169C26.1577 7.81965 26.2196 7.81232 26.2804 7.79845C26.3285 7.78772 26.5086 7.74219 26.5535 7.7223C26.6788 7.66629 26.8814 7.66341 26.9107 7.62886C26.9394 7.59458 27.1179 7.58176 27.155 7.53674C27.1733 7.51476 27.2143 7.50534 27.2461 7.5022C27.2816 7.49879 27.3096 7.48859 27.3391 7.46817C27.3725 7.44488 27.4122 7.43101 27.4495 7.41348C27.4565 7.41007 27.467 7.41191 27.4717 7.4072C27.5304 7.34962 27.6184 7.36611 27.6889 7.34177C27.7121 7.33365 27.7325 7.31664 27.7542 7.30382C27.7761 7.291 28.0019 7.22949 28.0909 7.20385C28.1638 7.18239 28.4483 7.04473 28.5407 7.00756C28.5982 6.98427 28.7324 6.98898 28.7645 6.93298C28.7901 6.88848 28.9647 6.80055 29.0404 6.77176C29.1448 6.73198 29.2459 6.68357 29.3493 6.64065C29.397 6.62076 29.4459 6.60113 29.496 6.58909C29.5216 6.58281 29.7346 6.49984 29.821 6.46818C29.8625 6.453 29.9061 6.44358 29.9494 6.43494C30.0528 6.41479 30.463 6.2787 30.5533 6.2138C30.7587 6.1659 30.8506 6.15727 31.0577 6.1167C31.143 6.09995 31.2347 6.09995 31.3216 6.10937C31.4404 6.12193 31.562 6.12534 31.6746 6.1748C31.7054 6.18841 31.738 6.19966 31.7657 6.21824C31.8607 6.28236 31.8657 6.32345 31.9343 6.42028C32.0249 6.548 32.2959 7.26927 32.1675 7.25985C32.1322 7.2575 32.1194 7.27425 32.0842 7.2821C32.0038 7.30068 31.796 7.34962 31.7148 7.35485C31.6503 7.3593 31.5855 7.35381 31.5229 7.37422C31.4837 7.38678 31.4451 7.40955 31.4054 7.41164C31.3253 7.41609 30.5277 7.65032 30.4786 7.69063C30.4726 7.69534 30.4687 7.70371 30.4622 7.70712C30.3139 7.78537 30.1844 7.89921 30.0173 7.94213C29.9774 7.9526 29.9367 7.96673 29.9017 7.98845C29.7816 8.0633 29.3996 8.18264 29.2756 8.24859C29.2621 8.25566 29.2459 8.25906 29.2305 8.26063C29.1861 8.26508 29.155 8.2889 29.1237 8.31926C29.0926 8.34935 29.0548 8.37526 29.0156 8.3928C28.9856 8.40614 28.9637 8.42263 28.9425 8.44723C28.9125 8.48256 28.8752 8.51161 28.8418 8.5438C28.8102 8.57442 28.7715 8.60112 28.7499 8.63802C28.705 8.71444 28.6684 8.79583 28.63 8.87618C28.5995 8.93951 28.5713 9.00415 28.5426 9.06827C28.5363 9.08267 28.5332 9.09811 28.5274 9.11276C28.5086 9.16066 28.4408 9.20489 28.4345 9.22478C28.3969 9.34176 28.3583 9.45848 28.3207 9.57547C28.3167 9.58724 28.3173 9.60007 28.3149 9.62048C28.3348 9.61708 28.3496 9.61708 28.3624 9.61158C28.4274 9.58463 28.4922 9.55689 28.5567 9.52836C28.612 9.5035 28.9859 9.38337 29.0073 9.37474C29.1686 9.30931 29.5803 9.19337 29.7544 9.19232C29.7983 9.19206 29.8429 9.17479 29.8857 9.1795C29.9983 9.19128 30.116 9.18264 30.216 9.2533C30.2345 9.26639 30.2604 9.26848 30.282 9.27712C30.3711 9.31219 30.4463 9.36558 30.5016 9.44514C30.5366 9.49617 30.5867 9.53386 30.6086 9.59745C30.6423 9.69428 30.6347 9.93506 30.6353 10.034C30.6355 10.0704 30.6126 10.1078 30.5977 10.1439C30.5536 10.2517 30.5363 10.3713 30.4557 10.4632C30.4423 10.4784 30.2267 10.6024 30.2165 10.6207C30.2035 10.6432 30.1935 10.6694 30.1755 10.6872C30.0413 10.8186 29.709 11.1269 29.6022 11.2771C29.5845 11.3022 29.5756 11.3339 29.5594 11.3609C29.5312 11.4077 28.9156 12.0154 28.9018 12.0431C28.8668 12.1128 28.5272 12.4545 28.5402 12.47C28.5635 12.4972 28.6901 12.4339 28.7144 12.4163C28.7997 12.354 29.0561 12.2857 29.1509 12.2614C29.2339 12.2399 29.5649 12.0656 29.6466 12.0363C29.7453 12.001 29.8557 11.9984 29.9612 11.9843C30.01 11.9777 30.0599 11.9803 30.1084 11.974C30.1565 11.9678 30.1912 11.9801 30.2272 12.0151C30.2888 12.0748 30.323 12.1428 30.3288 12.2279C30.3306 12.2562 30.3403 12.2842 30.3476 12.3122C30.3614 12.3663 30.3604 12.4174 30.3413 12.4731C30.3035 12.8432 30.1343 12.923 30.1202 12.9947C30.1147 13.023 29.9557 13.1656 29.9414 13.1879C29.8902 13.2669 29.686 13.3548 29.6662 13.4464C29.6599 13.4755 29.3782 13.6948 29.3453 13.7607C29.307 13.8379 29.2179 13.9651 29.1874 14.046C29.1728 14.085 29.1642 14.1264 29.1532 14.1667C29.1378 14.2248 29.1193 14.2823 29.108 14.3412C29.0934 14.4203 29.084 14.5003 29.0736 14.5802C29.0697 14.611 29.0704 14.6427 29.0663 14.6736C29.0579 14.7382 29.0775 14.8589 29.0728 14.9238C29.0668 15.0088 29.2057 15.0709 29.2921 15.0724C29.3516 15.0735 29.4132 15.0696 29.4707 15.0549C29.6657 15.0057 29.8573 14.9447 30.0411 14.8615C30.1077 14.8314 30.1779 14.8099 30.2455 14.7819C30.4875 14.6812 30.7198 14.5595 30.9217 14.3917C31.0984 14.2454 31.2725 14.0939 31.4179 13.9136C31.4819 13.8343 31.5545 13.7615 31.6122 13.678C31.6876 13.5684 31.7558 13.4535 31.82 13.3368C31.8714 13.2431 31.9124 13.1436 31.9565 13.0463C31.9649 13.0277 31.9649 13.0052 31.9719 12.9858C31.9871 12.945 31.9988 12.901 32.0223 12.8652C32.0591 12.8092 32.1272 12.8118 32.1659 12.867C32.1836 12.8927 32.193 12.9238 32.209 12.9507C32.2259 12.979 32.2463 13.0052 32.2648 13.0327C32.2748 13.0473 32.2865 13.062 32.2922 13.0785C32.3043 13.1125 32.3066 13.151 32.3238 13.1818C32.3562 13.2405 32.358 13.3004 32.3492 13.3632C32.3366 13.4511 32.3238 13.5391 32.3108 13.627C32.3053 13.6631 32.2956 13.699 32.293 13.7354C32.2781 13.9364 32.205 14.1177 32.1022 14.2868C32.0236 14.4161 31.9354 14.5399 31.8474 14.6631C31.8035 14.7244 31.7477 14.777 31.7033 14.8379C31.6636 14.8929 31.5352 15.0086 31.5341 15.0107C31.4707 15.129 31.3563 15.1384 31.2751 15.2381C31.2561 15.2617 31.2258 15.276 31.1999 15.2936C31.1678 15.3156 31.1349 15.3365 31.1018 15.3574C31.0887 15.3656 31.0739 15.3789 31.0608 15.3776C31.0013 15.3718 30.9579 15.3977 30.9125 15.4328C30.8833 15.4553 30.8392 15.4579 30.8034 15.4736C30.7587 15.493 30.7159 15.5168 30.6721 15.5383C30.6353 15.5563 30.115 15.7709 30.034 15.7801C29.9923 15.7848 29.9536 15.816 29.9132 15.834C29.8941 15.8424 29.7017 15.8924 29.632 15.9316C29.6119 15.9431 29.5889 15.9515 29.5662 15.9552C29.4046 15.9821 29.2435 16.0143 29.0806 16.0313C28.9357 16.0463 28.7893 16.0426 28.6457 16.0052C28.6005 15.9934 28.5528 15.9913 28.5065 15.9837C28.44 15.9727 28.3734 15.9612 28.3071 15.9481C28.2953 15.946 28.2852 15.9353 28.2745 15.928C28.2635 15.9206 28.2536 15.9076 28.2423 15.9062C28.1734 15.8981 28.121 15.8529 28.0596 15.8296C27.9745 15.7971 27.9126 15.7408 27.8573 15.6738C27.8309 15.6417 27.8111 15.6032 27.7824 15.5736C27.7192 15.5082 27.6954 15.4255 27.6792 15.3415C27.644 15.1585 27.6247 14.9738 27.6683 14.7885C27.6719 14.7736 27.6714 14.7576 27.6711 14.7419C27.6698 14.6901 27.6625 14.6377 27.6672 14.5864C27.6779 14.464 27.6959 14.342 27.7077 14.2198C27.7126 14.1682 27.7085 14.1159 27.7085 14.0536" fill="#162583"/>
<path fill-rule="evenodd" clip-rule="evenodd" d="M34.6451 10.7484C34.6767 10.7343 34.7007 10.7688 34.7184 10.7557C34.7793 10.7112 34.8015 10.718 34.8646 10.6772C34.9132 10.6456 34.9696 10.5066 34.979 10.4519C34.9842 10.4213 34.9923 10.3899 35.0064 10.3624C35.0967 10.1855 35.1831 10.0072 35.2288 9.81201C35.2393 9.76647 35.2596 9.72303 35.2698 9.67749C35.2917 9.58039 35.3145 9.4833 35.3288 9.3849C35.3481 9.25064 35.3609 9.11533 35.3737 8.98029C35.3753 8.96171 35.3643 8.9392 35.3531 8.92298C35.3236 8.8811 35.3077 8.83583 35.304 8.78453C35.2996 8.72486 35.2737 8.67854 35.2252 8.63797C35.1646 8.58668 35.0978 8.58354 35.0268 8.58537C34.9236 8.58825 34.89 8.61023 34.8813 8.71047C34.8704 8.84001 34.8203 8.95857 34.7939 9.08367C34.7652 9.21897 34.7278 9.3527 34.7038 9.48906C34.6929 9.55187 34.6741 9.75757 34.6516 9.80703C34.6464 9.81803 34.6487 9.83268 34.6477 9.84577C34.6409 9.92088 34.6339 9.99599 34.6276 10.0714C34.6216 10.1412 34.6119 10.2114 34.6122 10.2813C34.6127 10.399 34.6185 10.5165 34.6247 10.634C34.6263 10.6688 34.6367 10.7034 34.6451 10.7484M40.0188 6.61102C40.0045 6.63327 39.9896 6.65159 39.9797 6.67226C39.9609 6.71178 39.9348 6.73167 39.8909 6.74868C39.8379 6.76936 39.8836 6.77119 39.8408 6.81228C39.7429 6.90597 39.7197 6.95125 39.7003 6.996C39.6857 7.02976 39.6061 7.09728 39.5802 7.119C39.5408 7.1525 39.4991 7.18496 39.4539 7.20903C39.4291 7.22238 39.0641 7.538 39.0257 7.58276C38.9299 7.69451 38.1979 8.22499 38.1389 8.25745C38.1172 8.26922 38.0431 8.31293 37.9995 8.33936C37.9089 8.39406 37.8246 8.4621 37.7293 8.50607C37.5356 8.59558 37.3508 8.70759 37.1401 8.7581C37.1299 8.76045 37.1161 8.76176 37.1114 8.76857C37.0704 8.83059 36.5355 8.81175 36.4592 8.85676C36.4175 8.94967 36.4924 9.05828 36.4511 9.15119C36.4386 9.17945 36.4462 9.30586 36.4391 9.33596C36.4128 9.44718 36.459 9.59688 36.4446 9.71256C36.4362 9.78008 36.4423 9.89209 36.419 9.95804C36.3924 10.0345 36.3676 10.1514 36.3391 10.2271C36.3143 10.293 36.2264 10.4985 36.2329 10.5414C36.2412 10.5948 36.1219 10.8042 36.0927 10.8633C36.0697 10.9094 36.0593 10.9612 36.0407 11.0096C36.0232 11.0559 36.0021 11.1007 35.9838 11.1467C35.9716 11.1784 35.8838 11.2721 35.8468 11.3218C35.8342 11.3383 35.8248 11.3577 35.8167 11.3768C35.7282 11.5838 35.5677 11.7285 35.3969 11.8633C35.3672 11.8866 35.3275 11.8981 35.2915 11.9128C35.2408 11.9329 35.1863 11.9452 35.139 11.9714C35.0411 12.0258 34.943 12.0355 34.8385 11.9957C34.8221 11.9894 34.6626 12.0256 34.6015 12.047C34.5151 12.0774 34.4279 12.0965 34.3349 12.0952C34.2313 12.0936 34.1446 12.0447 34.0533 12.008C34.035 12.0007 34.0214 11.9824 34.0057 11.969C33.9721 11.9405 33.9392 11.9107 33.9047 11.8832C33.7791 11.7837 33.6363 11.6563 33.6034 11.4935C33.5956 11.4561 33.4993 11.2129 33.4706 11.1067C33.4583 11.0612 33.4421 11.0169 33.4324 10.9711C33.4236 10.9279 33.4183 10.8832 33.4168 10.839C33.4147 10.7843 33.4215 10.7285 33.3886 10.6793C33.386 10.6751 33.3839 10.6696 33.3839 10.6647C33.3839 10.5184 33.3254 10.3786 33.3351 10.2315C33.3356 10.2211 33.3345 10.2082 33.3398 10.2009C33.334 9.91512 33.3633 9.71701 33.369 9.59191C33.3734 9.50109 33.3854 9.41002 33.4011 9.32025C33.4092 9.2755 33.4411 9.23441 33.4468 9.18966C33.4523 9.14805 33.4283 9.10277 33.4327 9.0609C33.4452 8.94941 33.492 8.68142 33.4907 8.65839C33.4873 8.5872 33.5061 8.51916 33.5136 8.45006C33.5249 8.3459 33.5611 8.25509 33.6011 8.16192C33.6254 8.10461 33.635 8.04127 33.6528 7.98108C33.6593 7.9591 33.6705 7.93816 33.6797 7.9167C33.6898 7.89341 33.7019 7.87064 33.71 7.8463C33.7337 7.77433 33.7541 7.70105 33.7797 7.6296C33.788 7.60605 33.8029 7.5804 33.8222 7.56574C33.8958 7.33622 33.9295 7.26059 33.9415 7.2441C33.9867 7.18312 34.1921 6.95517 34.2853 6.92769C34.331 6.89315 34.3778 6.8552 34.4305 6.8361C34.508 6.80835 34.5905 6.79239 34.672 6.77826C34.7307 6.76831 34.7915 6.76936 34.8513 6.76596C34.8748 6.76465 34.8988 6.76151 34.9218 6.76543C35.0641 6.79056 35.2056 6.82746 35.3137 6.92665C35.3776 6.98527 35.6157 7.24489 35.6455 7.30273C35.6729 7.35585 35.7277 7.65473 35.8368 7.69267C35.9235 7.72277 35.9909 7.7861 36.0475 7.86122C36.107 7.93999 36.1911 7.96067 36.2833 7.929C36.3005 7.92298 36.5289 7.83845 36.6143 7.77747C36.6289 7.76674 36.6417 7.74999 36.6579 7.74554C36.7375 7.72329 36.803 7.66833 36.8461 7.61024C36.8999 7.53748 36.9712 7.49587 37.0354 7.44117C37.1401 7.35167 37.2385 7.25457 37.3421 7.16428C37.4839 7.04101 37.6296 6.92246 37.7708 6.79867C37.8512 6.72827 37.9251 6.65054 38.0032 6.57726C38.0449 6.53801 38.0859 6.49692 38.1326 6.4642C38.3937 6.28075 38.6154 5.99784 38.8649 5.79972C38.8916 5.77852 38.9211 5.76125 38.9474 5.74005C39.0547 5.65395 39.3161 5.4239 39.4254 5.34068C39.4852 5.29514 39.5727 5.18287 39.5886 5.20119C39.7186 5.05411 39.7685 5.11116 39.8337 5.05751C39.8489 5.04495 39.898 5.11247 39.9429 4.92744C39.9778 4.87745 40.0818 4.37759 40.0891 4.32943C40.0977 4.27526 40.1149 4.22893 40.1543 4.19072C40.1851 4.16089 40.1859 3.82983 40.2896 3.78298C40.3057 3.77565 40.4115 3.71546 40.4274 3.70761C40.4522 3.69557 40.712 3.62962 40.7822 3.63407C40.7926 3.63459 40.8059 3.63773 40.813 3.63276C40.9025 3.57021 40.9921 3.61889 41.0756 3.64166C41.173 3.66783 41.2688 3.70865 41.3568 3.75864C41.4257 3.7979 41.4816 3.86045 41.5432 3.91279C41.5651 3.93137 41.5857 3.95126 41.6082 3.96879C41.6476 3.99941 41.6902 4.02742 41.687 4.08683C41.6868 4.09389 41.6894 4.10436 41.6943 4.10829C41.7842 4.1779 41.7789 4.30169 41.8507 4.38151C41.8536 4.44118 41.8617 4.50111 41.8578 4.56052C41.8541 4.61156 41.8358 4.91592 41.8257 4.96696C41.8223 4.98423 41.8304 5.11221 41.8306 5.13C41.8319 5.18837 41.6199 6.14806 41.616 6.15617C41.5787 6.23521 41.6121 6.31608 41.6085 6.3959C41.5978 6.62332 41.5907 6.85101 41.5763 7.07818C41.5711 7.16088 41.5487 7.24227 41.5356 7.32471C41.5286 7.36815 41.5252 7.41186 41.52 7.45556C41.5087 7.55161 41.4967 7.64766 41.4863 7.74397C41.4824 7.78009 41.4831 7.81672 41.4787 7.85284C41.4701 7.92219 41.4599 7.99129 41.4489 8.06038C41.4359 8.14308 41.4098 8.22578 41.4106 8.30822C41.4119 8.42206 41.3858 8.52989 41.3701 8.64033C41.361 8.70445 41.3672 8.77066 41.3665 8.83609C41.3662 8.85179 41.3683 8.86775 41.3651 8.88293C41.3419 8.99285 41.3137 9.10172 41.2949 9.21243C41.2819 9.28937 41.2884 9.36972 41.274 9.44614C41.2367 9.64059 41.2646 9.83818 41.2398 10.0329C41.2364 10.0588 41.2289 10.0842 41.2257 10.1098C41.2213 10.1488 41.2218 10.4226 41.2041 10.5199C41.1986 10.5503 41.1965 10.5817 41.1968 10.6123C41.1975 10.7196 41.1994 10.8269 41.2022 10.9342C41.203 10.9601 41.2038 10.9881 41.2143 11.0112C41.2445 11.0784 41.244 11.1483 41.2404 11.2192C41.2354 11.3184 41.2312 11.4173 41.2268 11.5165C41.2268 11.5191 41.2265 11.5218 41.2268 11.5244C41.2404 11.6565 41.3289 12.0475 41.3534 12.1787C41.3631 12.2297 41.3811 12.2789 41.3946 12.3294C41.4205 12.4252 41.4458 12.5212 41.4711 12.6173C41.4724 12.6223 41.4748 12.628 41.4735 12.6327C41.4521 12.7152 41.4954 12.7853 41.5158 12.8599C41.5309 12.9151 41.5474 12.9709 41.5544 13.0274C41.5719 13.164 41.6257 13.2894 41.668 13.4184C41.6774 13.4474 41.6774 13.4796 41.6826 13.51C41.6868 13.5354 41.6907 13.561 41.698 13.5856C41.715 13.6432 41.7259 13.7031 41.7513 13.7576C42.0611 14.4233 41.7505 13.9648 41.6792 13.8633C41.6476 13.8714 41.6419 13.969 41.6126 13.9847C41.5534 14.0164 41.457 13.9292 41.4004 13.9745C41.3886 13.9837 41.3422 13.9674 41.3265 13.9497C41.2532 13.8667 41.1558 13.869 41.061 13.8719C41.0153 13.8732 40.9866 13.8617 40.9623 13.8261C40.9446 13.8002 40.925 13.7759 40.9036 13.7531C40.8934 13.7424 40.7545 13.7173 40.7015 13.7246C40.6485 13.7319 40.6099 13.7154 40.5723 13.6845C40.5078 13.6319 40.4626 13.5642 40.4316 13.4888C40.3726 13.3461 40.3076 13.2051 40.2963 13.0475C40.295 13.0276 40.2815 13.0091 40.2755 12.9892C40.2645 12.9523 40.2543 12.9151 40.2454 12.8777C40.2415 12.8601 40.2439 12.8408 40.2389 12.8235C40.1606 12.549 40.0217 11.8337 40.0066 11.7248C39.9839 11.5642 39.9413 11.169 39.9316 11.058C39.9282 11.0164 39.9196 10.9748 39.9196 10.9334C39.9196 10.8732 39.8977 10.7044 39.9001 10.6785C39.9055 10.6136 39.894 10.528 39.8948 10.4631C39.8964 10.2744 39.8925 10.0858 39.8938 9.89706C39.8943 9.83739 39.9079 9.53538 39.8925 9.43043C39.8841 9.37495 39.8985 9.31607 39.9027 9.25875C39.911 9.14962 39.9105 8.82143 39.9222 8.71256C39.9293 8.64792 39.9188 8.12005 39.9196 8.10984C39.9251 8.0452 39.9408 7.97899 39.9322 7.91617C39.9152 7.79003 39.9418 7.67226 39.9745 7.55318C39.9794 7.53539 39.9778 7.50895 39.9677 7.49482C39.9423 7.45844 39.9447 7.41997 39.9497 7.3815C39.9671 7.24907 39.9862 7.11717 40.006 6.98527C40.0089 6.96538 40.0144 6.94287 40.0261 6.92743C40.0556 6.88844 40.0577 6.84656 40.0536 6.80076C40.0502 6.76465 40.0525 6.72775 40.0515 6.69137C40.0509 6.66415 40.0614 6.63248 40.0188 6.61102" fill="#162583"/>
<mask id="mask1_0_1332" style="mask-type:luminance" maskUnits="userSpaceOnUse" x="25" y="0" width="7" height="7">
<path fill-rule="evenodd" clip-rule="evenodd" d="M25.1475 0H31.1003V6.70836H25.1475V0Z" fill="white"/>
</mask>
<g mask="url(#mask1_0_1332)">
<path fill-rule="evenodd" clip-rule="evenodd" d="M28.1453 4.24318C28.1025 4.28663 27.7132 4.39393 27.6704 4.43737C27.6631 4.4447 27.6582 4.45595 27.6495 4.4604C27.59 4.4905 27.5315 4.52321 27.4699 4.54807C27.3885 4.58053 27.3044 4.60722 27.2214 4.63549C27.2044 4.64124 27.1862 4.64438 27.1681 4.64569C27.1295 4.64831 27.0903 4.65145 27.0517 4.64962C27.0159 4.64805 26.9794 4.64412 26.9449 4.63444C26.8199 4.59858 26.6322 4.61847 26.515 4.56352C26.486 4.54991 26.4565 4.54389 26.4361 4.56823C26.4244 4.5821 26.4285 4.60984 26.4262 4.6313C26.4236 4.65721 26.4225 4.68312 26.4194 4.70876C26.4024 4.84119 26.4014 4.97388 26.4231 5.10552C26.4434 5.22695 26.4398 5.34943 26.4486 5.47139C26.4575 5.59073 26.4818 5.70955 26.5076 5.82679C26.5285 5.92206 26.5492 6.01549 26.5395 6.11363C26.5374 6.13404 26.5418 6.15498 26.5424 6.17565C26.5429 6.19083 26.5473 6.20968 26.5405 6.22119C26.4784 6.32404 26.4573 6.44574 26.3813 6.54309C26.3309 6.60721 26.2805 6.66322 26.1988 6.68128C26.0764 6.70823 25.9573 6.72865 25.8323 6.67447C25.754 6.64071 25.5498 6.64516 25.473 6.60433C25.395 6.56272 25.3433 6.50148 25.3094 6.42245C25.2927 6.38397 25.2814 6.34262 25.2608 6.30651C25.2128 6.22171 25.2042 6.12854 25.1945 6.03459C25.1906 5.99847 25.189 5.96 25.1749 5.92729C25.1438 5.85427 25.1449 5.78047 25.1506 5.70405C25.1548 5.64752 25.1556 5.59047 25.1561 5.53368C25.1561 5.52242 25.1564 5.51117 25.1564 5.49992C25.1566 5.48474 25.2457 4.95556 25.2237 4.80874C25.2104 4.72028 25.2287 4.62685 25.2318 4.53577C25.2331 4.49207 25.2323 4.4481 25.2323 4.40413C25.2323 4.38608 25.2323 4.36776 25.2329 4.3497C25.2331 4.34473 25.2384 4.33949 25.2376 4.33504C25.2201 4.22853 25.2624 4.12646 25.26 4.02125C25.2595 4.00581 25.26 3.98958 25.2637 3.97467C25.2898 3.86815 25.3493 3.62424 25.3483 3.60906C25.3409 3.51039 25.3323 3.41199 25.325 3.31359C25.3237 3.29788 25.3245 3.28218 25.3263 3.26674C25.3349 3.19974 25.3462 3.13274 25.3524 3.06548C25.355 3.03748 25.3532 3.00686 25.3446 2.98043C25.3266 2.92599 25.3235 2.87391 25.3436 2.81921C25.3496 2.80351 25.3501 2.78179 25.3441 2.76609C25.3138 2.68522 25.3336 2.60461 25.3441 2.52505C25.3566 2.42927 25.3736 2.33374 25.3934 2.239C25.4075 2.17017 25.4261 2.10187 25.4482 2.03513C25.4728 1.9608 25.5007 1.88857 25.5133 1.8098C25.5237 1.74385 25.561 1.41645 25.5733 1.30941C25.5754 1.29161 25.5699 1.27303 25.5709 1.25523C25.573 1.2165 25.5681 1.17436 25.5817 1.14008C25.6098 1.0702 25.6461 1.00294 25.6832 0.936991C25.7054 0.897735 25.7469 0.883602 25.7902 0.881247C25.8529 0.877583 26.0022 0.872087 26.0646 0.875751C26.1936 0.883602 26.3014 0.936206 26.4006 1.02283C26.4607 1.07544 26.5395 1.1071 26.5888 1.17515C26.7071 1.22173 26.7212 1.34003 26.7209 1.44026C26.7209 1.54625 26.698 1.6423 26.6799 1.74725C26.6721 1.79409 26.6455 1.83937 26.6202 1.88098C26.5713 1.9608 26.5463 2.04795 26.5324 2.13877C26.5157 2.24973 26.5024 2.36122 26.4868 2.47245C26.4847 2.48789 26.4818 2.50464 26.4745 2.51799C26.4205 2.61534 26.4693 2.96734 26.4377 3.04114C26.4304 3.05816 26.4429 3.08668 26.4518 3.10762C26.4695 3.14871 26.4727 3.18927 26.4547 3.22958C26.4395 3.2636 26.4463 3.29265 26.4567 3.32693C26.4737 3.38346 26.4805 3.44339 26.4925 3.5062C26.5011 3.50254 26.5168 3.49966 26.5272 3.49076C26.593 3.43554 26.9854 3.2492 27.0507 3.1932C27.0877 3.16101 27.1225 3.12437 27.1642 3.09951C27.2274 3.06208 27.3185 3.04088 27.3553 2.98095C27.3937 2.91893 27.5339 2.85324 27.5945 2.81476C27.6386 2.7865 27.667 2.74541 27.6991 2.7038C27.7487 2.63942 27.8216 2.59283 27.8866 2.54154C27.925 2.51118 27.9955 2.4659 28.0364 2.43869C28.0516 2.42874 28.0675 2.41958 28.0837 2.41173C28.1022 2.40257 28.1252 2.39917 28.1406 2.38634C28.2056 2.33165 28.2072 2.28506 28.2855 2.25497C28.3341 2.23612 28.3552 2.19425 28.3596 2.14348C28.3688 2.03932 28.3889 1.82026 28.3876 1.81555C28.3602 1.71872 28.3821 1.61953 28.3771 1.52165C28.374 1.46015 28.3865 1.39682 28.3983 1.33558C28.4134 1.25654 28.4087 1.24921 28.421 1.20394C28.4364 1.1461 28.457 1.08905 28.4659 1.03016C28.4849 0.905324 28.5199 0.785723 28.5625 0.667429C28.5836 0.608806 28.5954 0.546257 28.6069 0.484755C28.6157 0.437386 28.6322 0.397082 28.6604 0.356779C28.7019 0.297632 28.7358 0.232728 28.7656 0.166777C28.7826 0.128829 28.8029 0.098994 28.8387 0.079104C28.9512 0.01577 29.0708 -0.0111862 29.1997 0.00425473C29.2355 0.0084421 29.2723 0.00896552 29.3081 0.00503986C29.4099 -0.00595198 29.5005 0.0285938 29.5819 0.0811976C29.6806 0.144793 29.772 0.218334 29.8506 0.308101C29.9114 0.377454 29.9336 0.464342 29.9735 0.542855C29.9842 0.564054 29.9824 0.595721 29.9764 0.62006C29.9587 0.693339 29.9388 0.766356 29.9143 0.837541C29.8955 0.891715 29.8689 0.943272 29.8451 0.995615C29.8375 1.0121 29.8362 1.03304 29.8169 1.09742C29.7832 1.20996 29.6976 1.4892 29.7036 1.51511C29.7208 1.58839 29.7232 1.58787 29.7078 1.66167C29.8848 1.63576 30.1075 1.57269 30.2056 1.54704C30.3278 1.51485 30.4529 1.50359 30.5784 1.51066C30.6239 1.51328 30.6685 1.53395 30.7131 1.54782C30.7429 1.55698 30.7708 1.57269 30.8011 1.57871C30.8351 1.58577 30.8588 1.60174 30.8721 1.63314C30.8954 1.68836 30.9243 1.74175 30.94 1.79907C30.9596 1.8713 30.9703 1.94615 30.9802 2.02021C30.9846 2.05293 30.9951 2.07334 31.0272 2.08381C31.0771 2.10056 31.0961 2.13641 31.0859 2.18823C31.0849 2.1932 31.0836 2.19922 31.0852 2.20393C31.1126 2.28402 31.0935 2.36672 31.0974 2.44785C31.0985 2.47062 31.0948 2.49626 31.0846 2.51563C31.046 2.58865 31.0173 2.67213 30.9217 2.69333C30.9126 2.69542 30.9029 2.70354 30.8967 2.71139C30.8554 2.76216 30.8042 2.79304 30.7385 2.80246C30.7181 2.80561 30.6074 2.89459 30.5664 2.915C30.4946 2.95112 30.4194 2.98095 30.3456 3.01367C30.3338 3.0189 30.2317 3.06993 30.1594 3.09898C30.0265 3.15237 29.9318 3.21989 29.7999 3.27642C29.7879 3.2814 29.7733 3.28663 29.7665 3.29631C29.6999 3.39027 29.5989 3.44209 29.5099 3.50856C29.4572 3.54782 29.4378 3.60644 29.424 3.66951C29.4096 3.73494 29.3376 4.61533 29.342 4.76425C29.3428 4.78492 29.3394 4.80586 29.3381 4.8268C29.3334 4.89013 29.3449 4.90609 29.4086 4.91473C29.4655 4.92206 29.5227 4.92808 29.5801 4.93043C29.6302 4.93253 29.6699 4.95085 29.7046 4.98696C29.7354 5.01889 29.772 5.0448 29.8023 5.07725C29.8268 5.10316 29.8464 5.13404 29.8665 5.16388C29.8736 5.17435 29.8746 5.18874 29.8801 5.20052C29.9866 5.23245 29.867 5.6347 29.7608 5.60303C29.6485 5.68076 29.5331 5.75063 29.4123 5.81266C29.4005 5.81868 29.3888 5.82575 29.3801 5.83517C29.2621 5.96759 29.0971 6.0181 28.9429 6.08719C28.893 6.10944 28.7505 6.16047 28.7001 6.18246C28.6426 6.20732 28.5288 6.21282 28.4709 6.23663C28.4035 6.26411 28.2732 6.27877 28.2059 6.30598C28.1962 6.30965 28.1866 6.31855 28.1774 6.31828C28.0753 6.31541 27.907 6.36932 27.8083 6.3811C27.7621 6.38633 27.6616 6.43082 27.6203 6.40988C27.555 6.37691 27.466 6.40543 27.3987 6.37691C27.3183 6.34289 27.2687 6.28295 27.2391 6.20339C27.2245 6.16414 27.2146 6.12305 27.1982 6.08458C27.1768 6.03433 27.1702 5.98617 27.1916 5.93331C27.219 5.86553 27.2415 5.79957 27.3008 5.74697C27.3963 5.66191 27.5138 5.61585 27.619 5.54859C27.6892 5.50384 28.0487 5.39497 28.1221 5.35519C28.2147 5.3052 28.2539 5.20994 28.2296 5.10473C28.202 4.98539 28.1696 4.75718 28.1714 4.71295C28.1748 4.62476 28.1693 4.37927 28.1651 4.2547C28.1586 4.25103 28.1518 4.24711 28.1453 4.24318" fill="#162583"/>
</g>
</svg>
